<?xml version="1.0" encoding="utf-8"?>
<!-- Generator: Adobe Illustrator 25.0.1, SVG Export Plug-In . SVG Version: 6.00 Build 0)  -->
<svg version="1.1" id="图层_1" xmlns="http://www.w3.org/2000/svg" xmlns:xlink="http://www.w3.org/1999/xlink" x="0px" y="0px"
	 viewBox="0 0 1500 1500" style="enable-background:new 0 0 1500 1500;" xml:space="preserve">
<style type="text/css">
	.st0{fill:#EA120D;stroke:#000000;stroke-miterlimit:10;}
	.st1{fill:#CD120D;stroke:#000000;stroke-miterlimit:10;}
	.st2{fill:#A3120D;stroke:#000000;stroke-miterlimit:10;}
</style>
<path class="st0" d="M1317.97,296.83c-134.48,207.81-288.25,346.23-288.25,346.23c-4.06,3.65-17.78,15.96-36.01,31.37
	C876.44,773.53,749.45,851.2,581.04,927.71c-214.25,97.33-407.85,185.29-460.6,120.58c-23.18-28.43-15.15-79-9.8-86.65
	c58.82-84.11,117.36-121.29,144.6-140.18C600.81,581.89,1368.48,135.05,1390,176.65"/>
<path class="st1" d="M110.57,1248.28c58.82-84.11,117.36-121.29,144.6-140.18c345.57-239.57,1113.24-686.41,1134.76-644.81"/>
<path class="st1" d="M1389.93,463.29c0.67,1.3-10.01,19.07-31.37,54.62c-16.83,28-32.42,52.82-40.67,65.56
	c-134.48,207.81-288.25,346.23-288.25,346.23c-4.06,3.65-17.78,15.96-36.01,31.37c-117.28,99.11-244.26,176.78-412.67,253.29"/>
<path class="st2" d="M255.17,1391c345.57-239.57,1113.24-686.41,1134.76-644.81"/>
<path class="st2" d="M1389.93,746.19c0.67,1.3-10.01,19.07-31.37,54.62c-16.83,28-32.42,52.82-40.67,65.56
	c-134.48,207.81-288.25,346.23-288.25,346.23"/>
</svg>
