<?xml version="1.0" encoding="utf-8"?>
<!-- Generator: Adobe Illustrator 25.0.1, SVG Export Plug-In . SVG Version: 6.00 Build 0)  -->
<svg version="1.1" id="图层_1" xmlns="http://www.w3.org/2000/svg" xmlns:xlink="http://www.w3.org/1999/xlink" x="0px" y="0px"
	 viewBox="0 0 1500 1500" style="enable-background:new 0 0 1500 1500;" xml:space="preserve">
<style type="text/css">
	.st0{fill:#EA120D;stroke:#000000;stroke-miterlimit:10;}
	.st1{fill:#A3120D;stroke:#000000;stroke-miterlimit:10;}
	.st2{fill:#CD120D;stroke:#000000;stroke-miterlimit:10;}
	.st3{fill:#880000;}
	.st4{font-family:'KaiTi';}
	.st5{font-size:108px;}
	.st6{fill:#640035;stroke:#530000;stroke-miterlimit:10;}
	.st7{font-family:'FranklinGothic-Medium';}
	.st8{fill:none;}
	.st9{fill:#7A120D;stroke:#000000;stroke-miterlimit:10;}
	.st10{fill:#63120D;stroke:#000000;stroke-miterlimit:10;}
	.st11{font-family:'AdobeSongStd-Light-GBpc-EUC-H';}
	.st12{font-size:48px;}
</style>
<path class="st0" d="M649.5,139.5c0.27,0.51-4.08,7.48-12.8,21.43c-6.87,10.99-13.23,20.72-16.59,25.72
	C565.24,268.19,502.5,322.5,502.5,322.5c-1.65,1.43-7.25,6.26-14.69,12.31c-47.85,38.89-99.66,69.36-168.38,99.38
	c-87.42,38.19-166.41,72.7-187.93,47.31c-9.46-11.16-6.18-31-4-34c24-33,47.88-47.59,59-55C327.5,298.5,640.72,123.18,649.5,139.5z"
	/>
<path class="st1" d="M649.47,362.97c0.27,0.51-4.08,7.48-12.8,21.43c-6.87,10.99-13.23,20.72-16.59,25.72
	c-54.87,81.54-117.61,135.85-117.61,135.85c-1.65,1.43-7.25,6.26-14.69,12.31c-47.85,38.89-99.66,69.36-168.38,99.38
	c-87.42,38.19-166.41,72.7-187.93,47.31c-9.46-11.16-6.18-31-4-34c24-33,47.88-47.59,59-55
	C327.47,521.97,640.69,346.64,649.47,362.97z"/>
<path class="st2" d="M649.47,251.97c0.27,0.51-4.08,7.48-12.8,21.43c-6.87,10.99-13.23,20.72-16.59,25.72
	c-54.87,81.54-117.61,135.85-117.61,135.85c-1.65,1.43-7.25,6.26-14.69,12.31c-47.85,38.89-99.66,69.36-168.38,99.38
	c-87.42,38.19-166.41,72.7-187.93,47.31c-9.46-11.16-6.18-31-4-34c24-33,47.88-47.59,59-55
	C327.47,410.97,640.69,235.64,649.47,251.97z"/>
<path class="st0" d="M851.51,140.23c-0.27,0.51,4.08,7.48,12.78,21.43c6.85,10.99,13.21,20.72,16.56,25.72
	c54.78,81.54,117.41,135.85,117.41,135.85c1.65,1.43,7.24,6.26,14.67,12.31c47.77,38.89,99.49,69.36,168.09,99.38
	c87.27,38.19,166.13,72.7,187.62,47.31c9.44-11.16,6.17-31,3.99-34c-23.96-33-47.8-47.59-58.9-55
	C1172.97,299.23,860.28,123.91,851.51,140.23z"/>
<path class="st1" d="M851.48,363.7c-0.27,0.51,4.08,7.48,12.78,21.43c6.85,10.99,13.21,20.72,16.57,25.72
	c54.78,81.54,117.42,135.85,117.42,135.85c1.65,1.43,7.24,6.26,14.67,12.31c47.77,38.89,99.5,69.36,168.1,99.38
	c87.28,38.19,166.14,72.7,187.63,47.31c9.44-11.16,6.17-31,3.99-34c-23.96-33-47.81-47.59-58.9-55
	C1172.96,522.7,860.25,347.38,851.48,363.7z"/>
<path class="st2" d="M851.48,252.7c-0.27,0.51,4.08,7.48,12.78,21.43c6.85,10.99,13.21,20.72,16.57,25.72
	c54.78,81.54,117.42,135.85,117.42,135.85c1.65,1.43,7.24,6.26,14.67,12.31c47.77,38.89,99.5,69.36,168.1,99.38
	c87.28,38.19,166.14,72.7,187.63,47.31c9.44-11.16,6.17-31,3.99-34c-23.96-33-47.81-47.59-58.9-55
	C1172.96,411.7,860.25,236.38,851.48,252.7z"/>
<text transform="matrix(1 0 0 1 431.3335 681)" class="st3 st4 st5">耕读理工学社</text>
<text transform="matrix(1 0 0 1 379.3335 773.333)" class="st6 st7 st5">Gengdu institute</text>
<polygon class="st8" points="107.05,968.52 116.11,957.96 115.77,957.69 106.71,968.25 "/>
<polygon class="st8" points="128.27,1182.93 141.36,1167.68 141.08,1167.46 127.99,1182.71 "/>
<path class="st9" d="M1289.26,1261.27c-0.2-0.07-1.51-2.64-4.13-7.8c-2.07-4.06-3.85-7.72-4.75-9.61
	c-14.69-30.94-20.05-56.93-20.05-56.93c-0.14-0.69-0.62-3-1.14-5.99c-3.35-19.22-3.55-37.22-0.77-58.59
	c3.54-27.19,6.73-51.76,17.82-50.07c4.87,0.74,10.15,6.2,10.66,7.37c5.64,12.89,5.9,21.32,6.2,25.39
	C1296.91,1156.7,1295.54,1263.4,1289.26,1261.27z"/>
<path class="st10" d="M1228.7,1246.56c-0.2-0.07-1.51-2.64-4.13-7.8c-2.07-4.06-3.85-7.72-4.75-9.61
	c-14.69-30.94-20.05-56.93-20.05-56.93c-0.14-0.69-0.62-3-1.14-5.99c-3.35-19.22-3.55-37.22-0.77-58.59
	c3.54-27.19,6.73-51.76,17.82-50.07c4.87,0.74,10.15,6.2,10.66,7.37c5.64,12.89,5.9,21.32,6.2,25.39
	C1236.35,1141.99,1234.98,1248.68,1228.7,1246.56z"/>
<path class="st2" d="M1255.76,1241.07c-0.2-0.07-1.51-2.64-4.13-7.8c-2.07-4.06-3.85-7.72-4.75-9.61
	c-14.69-30.94-20.05-56.93-20.05-56.93c-0.14-0.69-0.62-3-1.14-5.99c-3.35-19.22-3.55-37.22-0.77-58.59
	c3.54-27.19,6.73-51.76,17.82-50.07c4.87,0.74,10.15,6.2,10.66,7.37c5.64,12.89,5.9,21.32,6.2,25.39
	C1263.4,1136.5,1262.03,1243.2,1255.76,1241.07z"/>
<path class="st9" d="M1289.26,1261.27c-0.2-0.07-1.51-2.64-4.13-7.8c-2.07-4.06-3.85-7.72-4.75-9.61
	c-14.69-30.94-20.05-56.93-20.05-56.93c-0.14-0.69-0.62-3-1.14-5.99c-3.35-19.22-3.55-37.22-0.77-58.59
	c3.54-27.19,6.73-51.76,17.82-50.07c4.87,0.74,10.15,6.2,10.66,7.37c5.64,12.89,5.9,21.32,6.2,25.39
	C1296.91,1156.7,1295.54,1263.4,1289.26,1261.27z"/>
<path class="st10" d="M1228.7,1246.56c-0.2-0.07-1.51-2.64-4.13-7.8c-2.07-4.06-3.85-7.72-4.75-9.61
	c-14.69-30.94-20.05-56.93-20.05-56.93c-0.14-0.69-0.62-3-1.14-5.99c-3.35-19.22-3.55-37.22-0.77-58.59
	c3.54-27.19,6.73-51.76,17.82-50.07c4.87,0.74,10.15,6.2,10.66,7.37c5.64,12.89,5.9,21.32,6.2,25.39
	C1236.35,1141.99,1234.98,1248.68,1228.7,1246.56z"/>
<path class="st2" d="M1255.76,1241.07c-0.2-0.07-1.51-2.64-4.13-7.8c-2.07-4.06-3.85-7.72-4.75-9.61
	c-14.69-30.94-20.05-56.93-20.05-56.93c-0.14-0.69-0.62-3-1.14-5.99c-3.35-19.22-3.55-37.22-0.77-58.59
	c3.54-27.19,6.73-51.76,17.82-50.07c4.87,0.74,10.15,6.2,10.66,7.37c5.64,12.89,5.9,21.32,6.2,25.39
	C1263.4,1136.5,1262.03,1243.2,1255.76,1241.07z"/>
<path class="st10" d="M1319.31,1268.54c-0.2-0.07-1.51-2.64-4.13-7.8c-2.07-4.06-3.85-7.72-4.75-9.61
	c-14.69-30.94-20.05-56.93-20.05-56.93c-0.14-0.69-0.62-3-1.14-5.99c-3.35-19.22-3.55-37.22-0.77-58.59
	c3.54-27.19,6.73-51.76,17.82-50.07c4.87,0.74,10.15,6.2,10.66,7.37c5.64,12.89,5.9,21.32,6.2,25.39
	C1326.96,1163.97,1325.59,1270.67,1319.31,1268.54z"/>
<path class="st2" d="M1346.36,1263.05c-0.2-0.07-1.51-2.64-4.13-7.8c-2.07-4.06-3.85-7.72-4.75-9.61
	c-14.69-30.94-20.05-56.93-20.05-56.93c-0.14-0.69-0.62-3-1.14-5.99c-3.35-19.22-3.55-37.22-0.77-58.59
	c3.54-27.19,6.73-51.76,17.82-50.07c4.87,0.74,10.15,6.2,10.66,7.37c5.64,12.89,5.9,21.32,6.2,25.39
	C1354.01,1158.48,1352.64,1265.18,1346.36,1263.05z"/>
<rect x="1293.76" y="1159.37" transform="matrix(0.6342 -0.7732 0.7732 0.6342 -420.8674 1429.8127)" class="st8" width="13.75" height="0.63"/>
<path class="st9" d="M1200.12,1245c-0.2-0.07-1.51-2.64-4.13-7.8c-2.07-4.06-3.85-7.72-4.75-9.61
	c-14.69-30.94-20.05-56.93-20.05-56.93c-0.14-0.69-0.62-3-1.14-5.99c-3.35-19.22-3.55-37.22-0.77-58.59
	c3.54-27.19,6.73-51.76,17.82-50.07c4.87,0.74,10.15,6.2,10.66,7.37c5.64,12.89,5.9,21.32,6.2,25.39
	C1207.77,1140.43,1206.4,1247.13,1200.12,1245z"/>
<path class="st10" d="M1139.55,1230.29c-0.2-0.07-1.51-2.64-4.13-7.8c-2.07-4.06-3.85-7.72-4.75-9.61
	c-14.69-30.94-20.05-56.93-20.05-56.93c-0.14-0.69-0.62-3-1.14-5.99c-3.35-19.22-3.55-37.22-0.77-58.59
	c3.54-27.19,6.73-51.76,17.82-50.07c4.87,0.74,10.15,6.2,10.66,7.37c5.64,12.89,5.9,21.32,6.2,25.39
	C1147.2,1125.71,1145.83,1232.41,1139.55,1230.29z"/>
<path class="st2" d="M1166.61,1224.8c-0.2-0.07-1.51-2.64-4.13-7.8c-2.07-4.06-3.85-7.72-4.75-9.61
	c-14.69-30.94-20.05-56.93-20.05-56.93c-0.14-0.69-0.62-3-1.14-5.99c-3.35-19.22-3.55-37.22-0.77-58.59
	c3.54-27.19,6.73-51.76,17.82-50.07c4.87,0.74,10.15,6.2,10.66,7.37c5.64,12.89,5.9,21.32,6.2,25.39
	C1174.26,1120.23,1172.89,1226.93,1166.61,1224.8z"/>
<rect x="1100.38" y="1112.97" transform="matrix(0.6342 -0.7732 0.7732 0.6342 -455.7297 1263.3241)" class="st8" width="13.75" height="0.63"/>
<path class="st9" d="M1019.21,1201.63c-0.2-0.07-1.51-2.64-4.13-7.8c-2.07-4.06-3.85-7.72-4.75-9.61
	c-14.69-30.94-20.05-56.93-20.05-56.93c-0.14-0.69-0.62-3-1.14-5.99c-3.35-19.22-3.55-37.22-0.77-58.59
	c3.54-27.19,6.73-51.76,17.82-50.07c4.87,0.74,10.15,6.2,10.66,7.37c5.64,12.89,5.9,21.32,6.2,25.39
	C1026.85,1097.05,1025.48,1203.75,1019.21,1201.63z"/>
<path class="st10" d="M958.64,1186.91c-0.2-0.07-1.51-2.64-4.13-7.8c-2.07-4.06-3.85-7.72-4.75-9.61
	c-14.69-30.94-20.05-56.93-20.05-56.93c-0.14-0.69-0.62-3-1.14-5.99c-3.35-19.22-3.55-37.22-0.77-58.59
	c3.54-27.19,6.73-51.76,17.82-50.07c4.87,0.74,10.15,6.2,10.66,7.37c5.64,12.89,5.9,21.32,6.2,25.39
	C966.29,1082.34,964.92,1189.04,958.64,1186.91z"/>
<path class="st2" d="M985.7,1181.42c-0.2-0.07-1.51-2.64-4.13-7.8c-2.07-4.06-3.85-7.72-4.75-9.61
	c-14.69-30.94-20.05-56.93-20.05-56.93c-0.14-0.69-0.62-3-1.14-5.99c-3.35-19.22-3.55-37.22-0.77-58.59
	c3.54-27.19,6.73-51.76,17.82-50.07c4.87,0.74,10.15,6.2,10.66,7.37c5.64,12.89,5.9,21.32,6.2,25.39
	C993.35,1076.85,991.98,1183.55,985.7,1181.42z"/>
<rect x="1100.38" y="1112.97" transform="matrix(0.6342 -0.7732 0.7732 0.6342 -455.7297 1263.3241)" class="st8" width="13.75" height="0.63"/>
<path class="st9" d="M1019.21,1201.63c-0.2-0.07-1.51-2.64-4.13-7.8c-2.07-4.06-3.85-7.72-4.75-9.61
	c-14.69-30.94-20.05-56.93-20.05-56.93c-0.14-0.69-0.62-3-1.14-5.99c-3.35-19.22-3.55-37.22-0.77-58.59
	c3.54-27.19,6.73-51.76,17.82-50.07c4.87,0.74,10.15,6.2,10.66,7.37c5.64,12.89,5.9,21.32,6.2,25.39
	C1026.85,1097.05,1025.48,1203.75,1019.21,1201.63z"/>
<path class="st10" d="M958.64,1186.91c-0.2-0.07-1.51-2.64-4.13-7.8c-2.07-4.06-3.85-7.72-4.75-9.61
	c-14.69-30.94-20.05-56.93-20.05-56.93c-0.14-0.69-0.62-3-1.14-5.99c-3.35-19.22-3.55-37.22-0.77-58.59
	c3.54-27.19,6.73-51.76,17.82-50.07c4.87,0.74,10.15,6.2,10.66,7.37c5.64,12.89,5.9,21.32,6.2,25.39
	C966.29,1082.34,964.92,1189.04,958.64,1186.91z"/>
<path class="st2" d="M985.7,1181.42c-0.2-0.07-1.51-2.64-4.13-7.8c-2.07-4.06-3.85-7.72-4.75-9.61
	c-14.69-30.94-20.05-56.93-20.05-56.93c-0.14-0.69-0.62-3-1.14-5.99c-3.35-19.22-3.55-37.22-0.77-58.59
	c3.54-27.19,6.73-51.76,17.82-50.07c4.87,0.74,10.15,6.2,10.66,7.37c5.64,12.89,5.9,21.32,6.2,25.39
	C993.35,1076.85,991.98,1183.55,985.7,1181.42z"/>
<rect x="1201.64" y="1131.22" transform="matrix(0.6342 -0.7732 0.7732 0.6342 -432.7993 1348.292)" class="st8" width="13.75" height="0.63"/>
<path class="st9" d="M1109.81,1223.61c-0.2-0.07-1.51-2.64-4.13-7.8c-2.07-4.06-3.85-7.72-4.75-9.61
	c-14.69-30.94-20.05-56.93-20.05-56.93c-0.14-0.69-0.62-3-1.14-5.99c-3.35-19.22-3.55-37.22-0.77-58.59
	c3.54-27.19,6.73-51.76,17.82-50.07c4.87,0.74,10.15,6.2,10.66,7.37c5.64,12.89,5.9,21.32,6.2,25.39
	C1117.46,1119.04,1116.09,1225.73,1109.81,1223.61z"/>
<path class="st10" d="M1049.25,1208.89c-0.2-0.07-1.51-2.64-4.13-7.8c-2.07-4.06-3.85-7.72-4.75-9.61
	c-14.69-30.94-20.05-56.93-20.05-56.93c-0.14-0.69-0.62-3-1.14-5.99c-3.35-19.22-3.55-37.22-0.77-58.59
	c3.54-27.19,6.73-51.76,17.82-50.07c4.87,0.74,10.15,6.2,10.66,7.37c5.64,12.89,5.9,21.32,6.2,25.39
	C1056.9,1104.32,1055.53,1211.02,1049.25,1208.89z"/>
<path class="st2" d="M1076.31,1203.41c-0.2-0.07-1.51-2.64-4.13-7.8c-2.07-4.06-3.85-7.72-4.75-9.61
	c-14.69-30.94-20.05-56.93-20.05-56.93c-0.14-0.69-0.62-3-1.14-5.99c-3.35-19.22-3.55-37.22-0.77-58.59
	c3.54-27.19,6.73-51.76,17.82-50.07c4.87,0.74,10.15,6.2,10.66,7.37c5.64,12.89,5.9,21.32,6.2,25.39
	C1083.95,1098.84,1082.58,1205.53,1076.31,1203.41z"/>
<rect x="1201.9" y="1134.31" transform="matrix(0.6342 -0.7732 0.7732 0.6342 -435.092 1349.6223)" class="st8" width="13.75" height="0.63"/>
<path class="st9" d="M1108.26,1219.94c-0.2-0.07-1.51-2.64-4.13-7.8c-2.07-4.06-3.85-7.72-4.75-9.61
	c-14.69-30.94-20.05-56.93-20.05-56.93c-0.14-0.69-0.62-3-1.14-5.99c-3.35-19.22-3.55-37.22-0.77-58.59
	c3.54-27.19,6.73-51.76,17.82-50.07c4.87,0.74,10.15,6.2,10.66,7.37c5.64,12.89,5.9,21.32,6.2,25.39
	C1115.91,1115.37,1114.54,1222.06,1108.26,1219.94z"/>
<path class="st10" d="M1047.69,1205.22c-0.2-0.07-1.51-2.64-4.13-7.8c-2.07-4.06-3.85-7.72-4.75-9.61
	c-14.69-30.94-20.05-56.93-20.05-56.93c-0.14-0.69-0.62-3-1.14-5.99c-3.35-19.22-3.55-37.22-0.77-58.59
	c3.54-27.19,6.73-51.76,17.82-50.07c4.87,0.74,10.15,6.2,10.66,7.37c5.64,12.89,5.9,21.32,6.2,25.39
	C1055.34,1100.65,1053.97,1207.35,1047.69,1205.22z"/>
<path class="st2" d="M1074.75,1199.74c-0.2-0.07-1.51-2.64-4.13-7.8c-2.07-4.06-3.85-7.72-4.75-9.61
	c-14.69-30.94-20.05-56.93-20.05-56.93c-0.14-0.69-0.62-3-1.14-5.99c-3.35-19.22-3.55-37.22-0.77-58.59
	c3.54-27.19,6.73-51.76,17.82-50.07c4.87,0.74,10.15,6.2,10.66,7.37c5.64,12.89,5.9,21.32,6.2,25.39
	C1082.4,1095.17,1081.03,1201.86,1074.75,1199.74z"/>
<rect x="1008.52" y="1087.91" transform="matrix(0.6342 -0.7732 0.7732 0.6342 -469.9543 1183.1338)" class="st8" width="13.75" height="0.63"/>
<path class="st9" d="M927.35,1176.56c-0.2-0.07-1.51-2.64-4.13-7.8c-2.07-4.06-3.85-7.72-4.75-9.61
	c-14.69-30.94-20.05-56.93-20.05-56.93c-0.14-0.69-0.62-3-1.14-5.99c-3.35-19.22-3.55-37.22-0.77-58.59
	c3.54-27.19,6.73-51.76,17.82-50.07c4.87,0.74,10.15,6.2,10.66,7.37c5.64,12.89,5.9,21.32,6.2,25.39
	C934.99,1071.99,933.62,1178.69,927.35,1176.56z"/>
<path class="st10" d="M866.78,1161.85c-0.2-0.07-1.51-2.64-4.13-7.8c-2.07-4.06-3.85-7.72-4.75-9.61
	c-14.69-30.94-20.05-56.93-20.05-56.93c-0.14-0.69-0.62-3-1.14-5.99c-3.35-19.22-3.55-37.22-0.77-58.59
	c3.54-27.19,6.73-51.76,17.82-50.07c4.87,0.74,10.15,6.2,10.66,7.37c5.64,12.89,5.9,21.32,6.2,25.39
	C874.43,1057.28,873.06,1163.97,866.78,1161.85z"/>
<path class="st2" d="M893.84,1156.36c-0.2-0.07-1.51-2.64-4.13-7.8c-2.07-4.06-3.85-7.72-4.75-9.61
	c-14.69-30.94-20.05-56.93-20.05-56.93c-0.14-0.69-0.62-3-1.14-5.99c-3.35-19.22-3.55-37.22-0.77-58.59
	c3.54-27.19,6.73-51.76,17.82-50.07c4.87,0.74,10.15,6.2,10.66,7.37c5.64,12.89,5.9,21.32,6.2,25.39
	C901.49,1051.79,900.12,1158.49,893.84,1156.36z"/>
<rect x="1008.52" y="1087.91" transform="matrix(0.6342 -0.7732 0.7732 0.6342 -469.9543 1183.1338)" class="st8" width="13.75" height="0.63"/>
<path class="st9" d="M927.35,1176.56c-0.2-0.07-1.51-2.64-4.13-7.8c-2.07-4.06-3.85-7.72-4.75-9.61
	c-14.69-30.94-20.05-56.93-20.05-56.93c-0.14-0.69-0.62-3-1.14-5.99c-3.35-19.22-3.55-37.22-0.77-58.59
	c3.54-27.19,6.73-51.76,17.82-50.07c4.87,0.74,10.15,6.2,10.66,7.37c5.64,12.89,5.9,21.32,6.2,25.39
	C934.99,1071.99,933.62,1178.69,927.35,1176.56z"/>
<path class="st10" d="M866.78,1161.85c-0.2-0.07-1.51-2.64-4.13-7.8c-2.07-4.06-3.85-7.72-4.75-9.61
	c-14.69-30.94-20.05-56.93-20.05-56.93c-0.14-0.69-0.62-3-1.14-5.99c-3.35-19.22-3.55-37.22-0.77-58.59
	c3.54-27.19,6.73-51.76,17.82-50.07c4.87,0.74,10.15,6.2,10.66,7.37c5.64,12.89,5.9,21.32,6.2,25.39
	C874.43,1057.28,873.06,1163.97,866.78,1161.85z"/>
<path class="st2" d="M893.84,1156.36c-0.2-0.07-1.51-2.64-4.13-7.8c-2.07-4.06-3.85-7.72-4.75-9.61
	c-14.69-30.94-20.05-56.93-20.05-56.93c-0.14-0.69-0.62-3-1.14-5.99c-3.35-19.22-3.55-37.22-0.77-58.59
	c3.54-27.19,6.73-51.76,17.82-50.07c4.87,0.74,10.15,6.2,10.66,7.37c5.64,12.89,5.9,21.32,6.2,25.39
	C901.49,1051.79,900.12,1158.49,893.84,1156.36z"/>
<rect x="1109.78" y="1106.16" transform="matrix(0.6342 -0.7732 0.7732 0.6342 -447.024 1268.1017)" class="st8" width="13.75" height="0.63"/>
<path class="st9" d="M1017.95,1198.55c-0.2-0.07-1.51-2.64-4.13-7.8c-2.07-4.06-3.85-7.72-4.75-9.61
	c-14.69-30.94-20.05-56.93-20.05-56.93c-0.14-0.69-0.62-3-1.14-5.99c-3.35-19.22-3.55-37.22-0.77-58.59
	c3.54-27.19,6.73-51.76,17.82-50.07c4.87,0.74,10.15,6.2,10.66,7.37c5.64,12.89,5.9,21.32,6.2,25.39
	C1025.6,1093.97,1024.23,1200.67,1017.95,1198.55z"/>
<path class="st10" d="M957.39,1183.83c-0.2-0.07-1.51-2.64-4.13-7.8c-2.07-4.06-3.85-7.72-4.75-9.61
	c-14.69-30.94-20.05-56.93-20.05-56.93c-0.14-0.69-0.62-3-1.14-5.99c-3.35-19.22-3.55-37.22-0.77-58.59
	c3.54-27.19,6.73-51.76,17.82-50.07c4.87,0.74,10.15,6.2,10.66,7.37c5.64,12.89,5.9,21.32,6.2,25.39
	C965.04,1079.26,963.67,1185.96,957.39,1183.83z"/>
<path class="st2" d="M984.45,1178.35c-0.2-0.07-1.51-2.64-4.13-7.8c-2.07-4.06-3.85-7.72-4.75-9.61
	C960.87,1130,955.51,1104,955.51,1104c-0.14-0.69-0.62-3-1.14-5.99c-3.35-19.22-3.55-37.22-0.77-58.59
	c3.54-27.19,6.73-51.76,17.82-50.07c4.87,0.74,10.15,6.2,10.66,7.37c5.64,12.89,5.9,21.32,6.2,25.39
	C992.09,1073.77,990.72,1180.47,984.45,1178.35z"/>
<rect x="931.84" y="1074.67" transform="matrix(0.6342 -0.7732 0.7732 0.6342 -487.7612 1119.0043)" class="st8" width="13.75" height="0.63"/>
<path class="st9" d="M838.2,1160.29c-0.2-0.07-1.51-2.64-4.13-7.8c-2.07-4.06-3.85-7.72-4.75-9.61
	c-14.69-30.94-20.05-56.93-20.05-56.93c-0.14-0.69-0.62-3-1.14-5.99c-3.35-19.22-3.55-37.22-0.77-58.59
	c3.54-27.19,6.73-51.76,17.82-50.07c4.87,0.74,10.15,6.2,10.66,7.37c5.64,12.89,5.9,21.32,6.2,25.39
	C845.85,1055.72,844.48,1162.42,838.2,1160.29z"/>
<path class="st2" d="M804.69,1140.09c-0.2-0.07-1.51-2.64-4.13-7.8c-2.07-4.06-3.85-7.72-4.75-9.61
	c-14.69-30.94-20.05-56.93-20.05-56.93c-0.14-0.69-0.62-3-1.14-5.99c-3.35-19.22-3.55-37.22-0.77-58.59
	c3.54-27.19,6.73-51.76,17.82-50.07c4.87,0.74,10.15,6.2,10.66,7.37c5.64,12.89,5.9,21.32,6.2,25.39
	C812.34,1035.52,810.97,1142.22,804.69,1140.09z"/>
<rect x="839.72" y="1046.51" transform="matrix(0.6342 -0.7732 0.7732 0.6342 -499.6931 1037.4836)" class="st8" width="13.75" height="0.63"/>
<rect x="207.2" y="1669.32" transform="matrix(0.7058 -0.7084 0.7084 0.7058 -1126.1427 640.0924)" class="st8" width="0.67" height="12.99"/>
<path class="st9" d="M218.71,1276.28c0.21-0.07,1.58-2.74,4.31-8.08c2.15-4.2,4.01-7.99,4.95-9.95c15.27-32,20.63-58.68,20.63-58.68
	c0.14-0.7,0.61-3.08,1.13-6.14c3.3-19.7,3.26-38.08-0.03-59.8c-4.18-27.63-7.96-52.6-19.81-50.55c-5.2,0.9-10.77,6.63-11.3,7.84
	c-5.85,13.32-6,21.93-6.26,26.09C209,1169.83,212.02,1278.64,218.71,1276.28z"/>
<path class="st10" d="M283.31,1259.46c0.21-0.07,1.58-2.74,4.31-8.08c2.15-4.2,4.01-7.99,4.95-9.95
	c15.27-32,20.63-58.68,20.63-58.68c0.14-0.7,0.61-3.08,1.13-6.14c3.3-19.7,3.26-38.08-0.03-59.8c-4.18-27.63-7.96-52.6-19.81-50.55
	c-5.2,0.9-10.77,6.63-11.3,7.84c-5.85,13.32-6,21.93-6.26,26.09C273.6,1153.01,276.62,1261.81,283.31,1259.46z"/>
<path class="st2" d="M254.27,1254.67c0.21-0.07,1.58-2.74,4.31-8.08c2.15-4.2,4.01-7.99,4.95-9.95c15.27-32,20.63-58.68,20.63-58.68
	c0.14-0.7,0.61-3.08,1.13-6.14c3.3-19.7,3.26-38.08-0.03-59.8c-4.18-27.63-7.96-52.6-19.81-50.55c-5.2,0.9-10.77,6.63-11.3,7.84
	c-5.85,13.32-6,21.93-6.26,26.09C244.56,1148.22,247.59,1257.03,254.27,1254.67z"/>
<rect x="207.2" y="1669.32" transform="matrix(0.7058 -0.7084 0.7084 0.7058 -1126.1427 640.0924)" class="st8" width="0.67" height="12.99"/>
<path class="st9" d="M218.71,1276.28c0.21-0.07,1.58-2.74,4.31-8.08c2.15-4.2,4.01-7.99,4.95-9.95c15.27-32,20.63-58.68,20.63-58.68
	c0.14-0.7,0.61-3.08,1.13-6.14c3.3-19.7,3.26-38.08-0.03-59.8c-4.18-27.63-7.96-52.6-19.81-50.55c-5.2,0.9-10.77,6.63-11.3,7.84
	c-5.85,13.32-6,21.93-6.26,26.09C209,1169.83,212.02,1278.64,218.71,1276.28z"/>
<path class="st10" d="M283.31,1259.46c0.21-0.07,1.58-2.74,4.31-8.08c2.15-4.2,4.01-7.99,4.95-9.95
	c15.27-32,20.63-58.68,20.63-58.68c0.14-0.7,0.61-3.08,1.13-6.14c3.3-19.7,3.26-38.08-0.03-59.8c-4.18-27.63-7.96-52.6-19.81-50.55
	c-5.2,0.9-10.77,6.63-11.3,7.84c-5.85,13.32-6,21.93-6.26,26.09C273.6,1153.01,276.62,1261.81,283.31,1259.46z"/>
<path class="st2" d="M254.27,1254.67c0.21-0.07,1.58-2.74,4.31-8.08c2.15-4.2,4.01-7.99,4.95-9.95c15.27-32,20.63-58.68,20.63-58.68
	c0.14-0.7,0.61-3.08,1.13-6.14c3.3-19.7,3.26-38.08-0.03-59.8c-4.18-27.63-7.96-52.6-19.81-50.55c-5.2,0.9-10.77,6.63-11.3,7.84
	c-5.85,13.32-6,21.93-6.26,26.09C244.56,1148.22,247.59,1257.03,254.27,1254.67z"/>
<rect x="107.04" y="1702.79" transform="matrix(0.7058 -0.7084 0.7084 0.7058 -1179.3279 578.9828)" class="st8" width="0.67" height="12.99"/>
<path class="st10" d="M186.66,1284.6c0.21-0.07,1.58-2.74,4.31-8.08c2.15-4.2,4.01-7.99,4.95-9.95c15.27-32,20.63-58.68,20.63-58.68
	c0.14-0.7,0.61-3.08,1.13-6.14c3.3-19.7,3.26-38.08-0.03-59.8c-4.18-27.63-7.96-52.6-19.81-50.55c-5.2,0.9-10.77,6.63-11.3,7.84
	c-5.85,13.32-6,21.93-6.26,26.09C176.95,1178.15,179.98,1286.96,186.66,1284.6z"/>
<path class="st2" d="M157.63,1279.82c0.21-0.07,1.58-2.74,4.31-8.08c2.15-4.2,4.01-7.99,4.95-9.95c15.27-32,20.63-58.68,20.63-58.68
	c0.14-0.7,0.61-3.08,1.13-6.14c3.3-19.7,3.26-38.08-0.03-59.8c-4.18-27.63-7.96-52.6-19.81-50.55c-5.2,0.9-10.77,6.63-11.3,7.84
	c-5.85,13.32-6,21.93-6.26,26.09C147.92,1173.37,150.95,1282.17,157.63,1279.82z"/>
<rect x="283.08" y="1644.54" transform="matrix(0.7058 -0.7084 0.7084 0.7058 -1086.2632 686.5516)" class="st8" width="0.67" height="12.99"/>
<path class="st9" d="M313.87,1257.01c0.21-0.07,1.58-2.74,4.31-8.08c2.15-4.2,4.01-7.99,4.95-9.95c15.27-32,20.63-58.68,20.63-58.68
	c0.14-0.7,0.61-3.08,1.13-6.14c3.3-19.7,3.26-38.08-0.03-59.8c-4.18-27.63-7.96-52.6-19.81-50.55c-5.2,0.9-10.77,6.63-11.3,7.84
	c-5.85,13.32-6,21.93-6.26,26.09C304.16,1150.56,307.18,1259.37,313.87,1257.01z"/>
<path class="st10" d="M378.47,1240.18c0.21-0.07,1.58-2.74,4.31-8.08c2.15-4.2,4.01-7.99,4.95-9.95
	c15.27-32,20.63-58.68,20.63-58.68c0.14-0.7,0.61-3.08,1.13-6.14c3.3-19.7,3.26-38.08-0.03-59.8c-4.18-27.63-7.96-52.6-19.81-50.55
	c-5.2,0.9-10.77,6.63-11.3,7.84c-5.85,13.32-6,21.93-6.26,26.09C368.76,1133.73,371.78,1242.54,378.47,1240.18z"/>
<path class="st2" d="M349.43,1235.4c0.21-0.07,1.58-2.74,4.31-8.08c2.15-4.2,4.01-7.99,4.95-9.95c15.27-32,20.63-58.68,20.63-58.68
	c0.14-0.7,0.61-3.08,1.13-6.14c3.3-19.7,3.26-38.08-0.03-59.8c-4.18-27.63-7.96-52.6-19.81-50.55c-5.2,0.9-10.77,6.63-11.3,7.84
	c-5.85,13.32-6,21.93-6.26,26.09C339.72,1128.95,342.75,1237.76,349.43,1235.4z"/>
<polygon class="st8" points="406.84,1114.35 416.33,1124.94 415.81,1125.36 406.32,1114.78 "/>
<path class="st9" d="M506.83,1207.33c0.21-0.07,1.58-2.74,4.31-8.08c2.15-4.2,4.01-7.99,4.95-9.95c15.27-32,20.63-58.68,20.63-58.68
	c0.14-0.7,0.61-3.08,1.13-6.14c3.3-19.7,3.26-38.08-0.03-59.8c-4.18-27.63-7.96-52.6-19.81-50.55c-5.2,0.9-10.77,6.63-11.3,7.84
	c-5.85,13.32-6,21.93-6.26,26.09C497.12,1100.88,500.15,1209.69,506.83,1207.33z"/>
<path class="st10" d="M571.43,1190.5c0.21-0.07,1.58-2.74,4.31-8.08c2.15-4.2,4.01-7.99,4.95-9.95c15.27-32,20.63-58.68,20.63-58.68
	c0.14-0.7,0.61-3.08,1.13-6.14c3.3-19.7,3.26-38.08-0.03-59.8c-4.18-27.63-7.96-52.6-19.81-50.55c-5.2,0.9-10.77,6.63-11.3,7.84
	c-5.85,13.32-6,21.93-6.26,26.09C561.72,1084.05,564.75,1192.86,571.43,1190.5z"/>
<path class="st2" d="M542.4,1185.72c0.21-0.07,1.58-2.74,4.31-8.08c2.15-4.2,4.01-7.99,4.95-9.95c15.27-32,20.63-58.68,20.63-58.68
	c0.14-0.7,0.61-3.08,1.13-6.14c3.3-19.7,3.26-38.08-0.03-59.8c-4.18-27.63-7.96-52.6-19.81-50.55c-5.2,0.9-10.77,6.63-11.3,7.84
	c-5.85,13.32-6,21.93-6.26,26.09C532.69,1079.27,535.71,1188.08,542.4,1185.72z"/>
<polygon class="st8" points="406.84,1114.35 416.33,1124.94 415.81,1125.36 406.32,1114.78 "/>
<path class="st9" d="M506.83,1207.33c0.21-0.07,1.58-2.74,4.31-8.08c2.15-4.2,4.01-7.99,4.95-9.95c15.27-32,20.63-58.68,20.63-58.68
	c0.14-0.7,0.61-3.08,1.13-6.14c3.3-19.7,3.26-38.08-0.03-59.8c-4.18-27.63-7.96-52.6-19.81-50.55c-5.2,0.9-10.77,6.63-11.3,7.84
	c-5.85,13.32-6,21.93-6.26,26.09C497.12,1100.88,500.15,1209.69,506.83,1207.33z"/>
<path class="st10" d="M571.43,1190.5c0.21-0.07,1.58-2.74,4.31-8.08c2.15-4.2,4.01-7.99,4.95-9.95c15.27-32,20.63-58.68,20.63-58.68
	c0.14-0.7,0.61-3.08,1.13-6.14c3.3-19.7,3.26-38.08-0.03-59.8c-4.18-27.63-7.96-52.6-19.81-50.55c-5.2,0.9-10.77,6.63-11.3,7.84
	c-5.85,13.32-6,21.93-6.26,26.09C561.72,1084.05,564.75,1192.86,571.43,1190.5z"/>
<path class="st2" d="M542.4,1185.72c0.21-0.07,1.58-2.74,4.31-8.08c2.15-4.2,4.01-7.99,4.95-9.95c15.27-32,20.63-58.68,20.63-58.68
	c0.14-0.7,0.61-3.08,1.13-6.14c3.3-19.7,3.26-38.08-0.03-59.8c-4.18-27.63-7.96-52.6-19.81-50.55c-5.2,0.9-10.77,6.63-11.3,7.84
	c-5.85,13.32-6,21.93-6.26,26.09C532.69,1079.27,535.71,1188.08,542.4,1185.72z"/>
<polygon class="st8" points="298.75,1136.01 308.23,1146.59 307.72,1147.02 298.23,1136.43 "/>
<path class="st9" d="M410.19,1232.48c0.21-0.07,1.58-2.74,4.31-8.08c2.15-4.2,4.01-7.99,4.95-9.95c15.27-32,20.63-58.68,20.63-58.68
	c0.14-0.7,0.61-3.08,1.13-6.14c3.3-19.7,3.26-38.08-0.03-59.8c-4.18-27.63-7.96-52.6-19.81-50.55c-5.2,0.9-10.77,6.63-11.3,7.84
	c-5.85,13.32-6,21.93-6.26,26.09C400.48,1126.03,403.51,1234.84,410.19,1232.48z"/>
<path class="st10" d="M474.79,1215.65c0.21-0.07,1.58-2.74,4.31-8.08c2.15-4.2,4.01-7.99,4.95-9.95
	c15.27-32,20.63-58.68,20.63-58.68c0.14-0.7,0.61-3.08,1.13-6.14c3.3-19.7,3.26-38.08-0.03-59.8c-4.18-27.63-7.96-52.6-19.81-50.55
	c-5.2,0.9-10.77,6.63-11.3,7.84c-5.85,13.32-6,21.93-6.26,26.09C465.08,1109.2,468.1,1218.01,474.79,1215.65z"/>
<path class="st2" d="M445.76,1210.86c0.21-0.07,1.58-2.74,4.31-8.08c2.15-4.2,4.01-7.99,4.95-9.95c15.27-32,20.63-58.68,20.63-58.68
	c0.14-0.7,0.61-3.08,1.13-6.14c3.3-19.7,3.26-38.08-0.03-59.8c-4.18-27.63-7.96-52.6-19.81-50.55c-5.2,0.9-10.77,6.63-11.3,7.84
	c-5.85,13.32-6,21.93-6.26,26.09C436.05,1104.41,439.07,1213.22,445.76,1210.86z"/>
<polygon class="st8" points="298.51,1139.17 308,1149.75 307.48,1150.18 298,1139.59 "/>
<path class="st9" d="M411.81,1228.69c0.21-0.07,1.58-2.74,4.31-8.08c2.15-4.2,4.01-7.99,4.95-9.95c15.27-32,20.63-58.68,20.63-58.68
	c0.14-0.7,0.61-3.08,1.13-6.14c3.3-19.7,3.26-38.08-0.03-59.8c-4.18-27.63-7.96-52.6-19.81-50.55c-5.2,0.9-10.77,6.63-11.3,7.84
	c-5.85,13.32-6,21.93-6.26,26.09C402.1,1122.24,405.12,1231.05,411.81,1228.69z"/>
<path class="st10" d="M476.4,1211.86c0.21-0.07,1.58-2.74,4.31-8.08c2.15-4.2,4.01-7.99,4.95-9.95c15.27-32,20.63-58.68,20.63-58.68
	c0.14-0.7,0.61-3.08,1.13-6.14c3.3-19.7,3.26-38.08-0.03-59.8c-4.18-27.63-7.96-52.6-19.81-50.55c-5.2,0.9-10.77,6.63-11.3,7.84
	c-5.85,13.32-6,21.93-6.26,26.09C466.69,1105.41,469.72,1214.22,476.4,1211.86z"/>
<path class="st2" d="M447.37,1207.07c0.21-0.07,1.58-2.74,4.31-8.08c2.15-4.2,4.01-7.99,4.95-9.95c15.27-32,20.63-58.68,20.63-58.68
	c0.14-0.7,0.61-3.08,1.13-6.14c3.3-19.7,3.26-38.08-0.03-59.8c-4.18-27.63-7.96-52.6-19.81-50.55c-5.2,0.9-10.77,6.63-11.3,7.84
	c-5.85,13.32-6,21.93-6.26,26.09C437.66,1100.62,440.68,1209.43,447.37,1207.07z"/>
<polygon class="st8" points="504.78,1086.03 514.27,1096.62 513.75,1097.04 504.26,1086.46 "/>
<path class="st9" d="M604.77,1179.01c0.21-0.07,1.58-2.74,4.31-8.08c2.15-4.2,4.01-7.99,4.95-9.95c15.27-32,20.63-58.68,20.63-58.68
	c0.14-0.7,0.61-3.08,1.13-6.14c3.3-19.7,3.26-38.08-0.03-59.8c-4.18-27.63-7.96-52.6-19.81-50.55c-5.2,0.9-10.77,6.63-11.3,7.84
	c-5.85,13.32-6,21.93-6.26,26.09C595.06,1072.56,598.08,1181.37,604.77,1179.01z"/>
<path class="st10" d="M669.37,1162.18c0.21-0.07,1.58-2.74,4.31-8.08c2.15-4.2,4.01-7.99,4.95-9.95
	c15.27-32,20.63-58.68,20.63-58.68c0.14-0.7,0.61-3.08,1.13-6.14c3.3-19.7,3.26-38.08-0.03-59.8c-4.18-27.63-7.96-52.6-19.81-50.55
	c-5.2,0.9-10.77,6.63-11.3,7.84c-5.85,13.32-6,21.93-6.26,26.09C659.66,1055.73,662.68,1164.54,669.37,1162.18z"/>
<path class="st2" d="M640.33,1157.4c0.21-0.07,1.58-2.74,4.31-8.08c2.15-4.2,4.01-7.99,4.95-9.95c15.27-32,20.63-58.68,20.63-58.68
	c0.14-0.7,0.61-3.08,1.13-6.14c3.3-19.7,3.26-38.08-0.03-59.8c-4.18-27.63-7.96-52.6-19.81-50.55c-5.2,0.9-10.77,6.63-11.3,7.84
	c-5.85,13.32-6,21.93-6.26,26.09C630.62,1050.95,633.65,1159.75,640.33,1157.4z"/>
<polygon class="st8" points="504.78,1086.03 514.27,1096.62 513.75,1097.04 504.26,1086.46 "/>
<path class="st9" d="M604.77,1179.01c0.21-0.07,1.58-2.74,4.31-8.08c2.15-4.2,4.01-7.99,4.95-9.95c15.27-32,20.63-58.68,20.63-58.68
	c0.14-0.7,0.61-3.08,1.13-6.14c3.3-19.7,3.26-38.08-0.03-59.8c-4.18-27.63-7.96-52.6-19.81-50.55c-5.2,0.9-10.77,6.63-11.3,7.84
	c-5.85,13.32-6,21.93-6.26,26.09C595.06,1072.56,598.08,1181.37,604.77,1179.01z"/>
<path class="st10" d="M669.37,1162.18c0.21-0.07,1.58-2.74,4.31-8.08c2.15-4.2,4.01-7.99,4.95-9.95
	c15.27-32,20.63-58.68,20.63-58.68c0.14-0.7,0.61-3.08,1.13-6.14c3.3-19.7,3.26-38.08-0.03-59.8c-4.18-27.63-7.96-52.6-19.81-50.55
	c-5.2,0.9-10.77,6.63-11.3,7.84c-5.85,13.32-6,21.93-6.26,26.09C659.66,1055.73,662.68,1164.54,669.37,1162.18z"/>
<path class="st2" d="M640.33,1157.4c0.21-0.07,1.58-2.74,4.31-8.08c2.15-4.2,4.01-7.99,4.95-9.95c15.27-32,20.63-58.68,20.63-58.68
	c0.14-0.7,0.61-3.08,1.13-6.14c3.3-19.7,3.26-38.08-0.03-59.8c-4.18-27.63-7.96-52.6-19.81-50.55c-5.2,0.9-10.77,6.63-11.3,7.84
	c-5.85,13.32-6,21.93-6.26,26.09C630.62,1050.95,633.65,1159.75,640.33,1157.4z"/>
<polygon class="st8" points="396.68,1107.69 406.17,1118.27 405.65,1118.7 396.16,1108.11 "/>
<path class="st9" d="M508.13,1204.15c0.21-0.07,1.58-2.74,4.31-8.08c2.15-4.2,4.01-7.99,4.95-9.95c15.27-32,20.63-58.68,20.63-58.68
	c0.14-0.7,0.61-3.08,1.13-6.14c3.3-19.7,3.26-38.08-0.03-59.8c-4.18-27.63-7.96-52.6-19.81-50.55c-5.2,0.9-10.77,6.63-11.3,7.84
	c-5.85,13.32-6,21.93-6.26,26.09C498.42,1097.7,501.44,1206.51,508.13,1204.15z"/>
<path class="st10" d="M572.73,1187.33c0.21-0.07,1.58-2.74,4.31-8.08c2.15-4.2,4.01-7.99,4.95-9.95
	c15.27-32,20.63-58.68,20.63-58.68c0.14-0.7,0.61-3.08,1.13-6.14c3.3-19.7,3.26-38.08-0.03-59.8c-4.18-27.63-7.96-52.6-19.81-50.55
	c-5.2,0.9-10.77,6.63-11.3,7.84c-5.85,13.32-6,21.93-6.26,26.09C563.02,1080.88,566.04,1189.68,572.73,1187.33z"/>
<path class="st2" d="M543.69,1182.54c0.21-0.07,1.58-2.74,4.31-8.08c2.15-4.2,4.01-7.99,4.95-9.95c15.27-32,20.63-58.68,20.63-58.68
	c0.14-0.7,0.61-3.08,1.13-6.14c3.3-19.7,3.26-38.08-0.03-59.8c-4.18-27.63-7.96-52.6-19.81-50.55c-5.2,0.9-10.77,6.63-11.3,7.84
	c-5.85,13.32-6,21.93-6.26,26.09C533.98,1076.09,537.01,1184.9,543.69,1182.54z"/>
<polygon class="st8" points="586.64,1070.22 596.13,1080.8 595.61,1081.23 586.12,1070.64 "/>
<path class="st9" d="M699.93,1159.74c0.21-0.07,1.58-2.74,4.31-8.08c2.15-4.2,4.01-7.99,4.95-9.95c15.27-32,20.63-58.68,20.63-58.68
	c0.14-0.7,0.61-3.08,1.13-6.14c3.3-19.7,3.26-38.08-0.03-59.8c-4.18-27.63-7.96-52.6-19.81-50.55c-5.2,0.9-10.77,6.63-11.3,7.84
	c-5.85,13.32-6,21.93-6.26,26.09C690.22,1053.29,693.24,1162.09,699.93,1159.74z"/>
<path class="st2" d="M735.49,1138.12c0.21-0.07,1.58-2.74,4.31-8.08c2.15-4.2,4.01-7.99,4.95-9.95c15.27-32,20.63-58.68,20.63-58.68
	c0.14-0.7,0.61-3.08,1.13-6.14c3.3-19.7,3.26-38.08-0.03-59.8c-4.18-27.63-7.96-52.6-19.81-50.55c-5.2,0.9-10.77,6.63-11.3,7.84
	c-5.85,13.32-6,21.93-6.26,26.09C725.78,1031.67,728.81,1140.48,735.49,1138.12z"/>
<polygon class="st8" points="684.81,1038.74 694.29,1049.32 693.78,1049.75 684.29,1039.16 "/>
<text transform="matrix(1 0 0 1 445.5352 883.5605)" class="st11 st12">@https://gengduinstitute.github.io</text>
</svg>
